<svg xmlns="http://www.w3.org/2000/svg" version="1.1" xmlns:xlink="http://www.w3.org/1999/xlink" viewBox="0 0 10.188277013897325 11.127119669177327"><g transform="matrix(1,0,0,1,0.8871072569486627,8.723899130978666)"><g clip-path="url(#SvgjsClipPath1001)"><g clip-path="url(#SvgjsClipPath10001edbce42-b269-4926-b297-153631e9ee9c)"><path d=" M 7.199941213457743 -4.193474365514344 C 8.190022589173541 -5.1835557412301405 7.937169107289216 -6.426961169826329 7.188333795554865 -7.175325910564617 C 6.553847235863736 -7.809655613257058 5.563922717146627 -8.088233642926141 4.674072963592171 -7.555547275383231 L 5.113272559917303 -7.116347679058101 C 5.667134622283031 -7.371554015922738 6.285151197111968 -7.241833278008138 6.769996180055175 -6.757458866060992 C 7.404482739746304 -6.122815449371175 7.430207287531062 -5.2602588135883535 6.781603597958053 -4.611655124015349 L 5.911674683236917 -3.7417262092942103 C 5.551941865664819 -3.921347847449617 5.117645949844894 -3.8507866055629454 4.833282817260031 -3.566516941760222 C 4.468445145556197 -3.201674420802969 4.468445145556197 -2.6101529627722613 4.833282817260031 -2.2453104418150085 C 5.008445672800899 -2.0700321807942643 5.246086763868628 -1.97155217185618 5.493886067232636 -1.97155217185618 C 5.741685370596643 -1.97155217185618 5.979326461664373 -2.0700321807942643 6.15448931720524 -2.2453104418150085 C 6.438785395943729 -2.529586177182898 6.509411282274097 -2.9638279863375887 6.329855441737919 -3.3235454507932074 L 7.199784356459055 -4.193631222513033 Z M 5.736622272701616 -2.6631774863186344 C 5.672314665340148 -2.5988478588363657 5.585081615134445 -2.5627059987570107 5.494121352730668 -2.5627059987570107 C 5.403161090326891 -2.5627059987570107 5.315928040121188 -2.5988478588363657 5.2516204327597205 -2.6631774863186344 C 5.187290805277452 -2.727485093680099 5.151148945198096 -2.814718143885802 5.151148945198096 -2.9056784062895797 C 5.151148945198096 -2.9966386686933575 5.187290805277452 -3.0838717188990605 5.2516204327597205 -3.1481793262605287 C 5.315928040121188 -3.2125089537427973 5.403161090326891 -3.248650813822154 5.494121352730668 -3.248650813822154 C 5.585081615134445 -3.248650813822154 5.672314665340148 -3.2125089537427973 5.736622272701616 -3.1481793262605287 C 5.801035162724592 -3.0839549770662664 5.837289921397676 -2.996768668245532 5.8374075931774305 -2.905808382494599 C 5.837525264957187 -2.8148480967436686 5.801496206320843 -2.7275682771631553 5.737249700696366 -2.663177486318636 Z" fill="#ff0000" transform="matrix(1,0,0,1,0,0)" fill-rule="evenodd"></path></g><g clip-path="url(#SvgjsClipPath10001edbce42-b269-4926-b297-153631e9ee9c)"><path d=" M 4.206952821500657 -1.1998585455625097 C 5.197034197216453 -0.2097771698467108 6.440439625812641 -0.4626306517310397 7.188961223549615 -1.2114659634653906 C 7.823290926242055 -1.8457956661578327 8.101712098912452 -2.835877041873627 7.569025731369542 -3.7257267954280824 L 7.129826135044411 -3.2865271991029523 C 7.385189328907737 -2.7326651367372206 7.255311733994448 -2.114648561908285 6.7709373220473035 -1.6298035789650784 C 6.1364507623561755 -0.9951601622752646 5.273737269574665 -0.9695924714891904 4.625133580001656 -1.6180393040635144 L 3.7552046652805187 -2.488125075783337 C 3.934876797721655 -2.8478502076975047 3.8643105253720385 -3.282177085408887 3.5799953977465306 -3.5665169417602245 C 3.215081170805665 -3.931181457187894 2.6237031247421823 -3.931181457187894 2.2587888978013186 -3.5665169417602245 C 1.8939512260974856 -3.2016744208029744 1.8939512260974856 -2.6101529627722666 2.2587888978013186 -2.245310441815014 C 2.5430918132110487 -1.96094223247969 2.9774229416636926 -1.8903120940636793 3.3371807637782025 -2.069944317282337 L 4.207109678499343 -1.2000154025612009 Z M 2.6768127993036352 -2.663177486318639 C 2.6124831718213666 -2.7274850936801043 2.5763413117420124 -2.8147181438858073 2.5763413117420124 -2.905678406289585 C 2.5763413117420124 -2.996638668693363 2.6124831718213666 -3.083871718899066 2.676812799303638 -3.148179326260534 C 2.7411204066651003 -3.2125089537428027 2.8283534568708033 -3.248650813822157 2.919313719274581 -3.248650813822157 C 3.0102739816783592 -3.248650813822157 3.097507031884062 -3.2125089537428027 3.1618146392455286 -3.148179326260534 C 3.2956035322608477 -3.014191530799601 3.2956035322608477 -2.797165281779569 3.16181463924553 -2.663177486318639 C 3.0975070318840645 -2.5988478588363684 3.0102739816783615 -2.5627059987570133 2.9193137192745837 -2.5627059987570107 C 2.8283534568708033 -2.5627059987570107 2.7411204066651003 -2.5988478588363684 2.6768127993036352 -2.663177486318636 Z" fill="#ff0000" transform="matrix(1,0,0,1,0,0)" fill-rule="evenodd"></path></g><g clip-path="url(#SvgjsClipPath10001edbce42-b269-4926-b297-153631e9ee9c)"><path d=" M 1.2133370015488172 -4.193474365514344 C 0.22341248283170656 -3.2033929897985454 0.4761091077173447 -1.9598307042036707 1.225101276450384 -1.2114659634653853 C 1.859430979142824 -0.5771362607729431 2.8493554978599347 -0.29871508810255065 3.7393621084130775 -0.8314014556454579 L 3.3001625120879456 -1.2706010519705906 C 2.7461435927235303 -1.015237858107266 2.128127017894595 -1.1451154530205532 1.6432820349513835 -1.6294898649677014 C 1.008795475260255 -2.2639764246588303 0.9830709274754983 -3.1266899174403404 1.6316746170485052 -3.775136750014659 L 2.5016035317696446 -4.645065664735798 C 2.861353667703972 -4.465382919023492 3.295715780888005 -4.536018096120182 3.5799953977465306 -4.820431789268475 C 3.944833069450364 -5.185274310225725 3.944833069450364 -5.776795768256433 3.5799953977465306 -6.141638289213685 C 3.215152876789279 -6.506475960917518 2.623631418758572 -6.506475960917518 2.2587888978013213 -6.141638289213685 C 1.9745192339985953 -5.857275156628821 1.9039579921119263 -5.422979240808894 2.0835796302673306 -5.063246423236798 L 1.2134938585475057 -4.193317508515661 Z M 2.6768127993036326 -5.7236143877113665 C 2.7411204066651003 -5.787944015193634 2.8283534568708033 -5.824085875272987 2.919313719274581 -5.824085875272987 C 3.0102739816783592 -5.824085875272987 3.097507031884062 -5.787944015193634 3.1618146392455286 -5.7236143877113665 C 3.295603532260845 -5.589626592250436 3.295603532260845 -5.372600343230402 3.1618146392455286 -5.238612547769471 C 3.097507031884062 -5.174282920287203 3.0102739816783592 -5.138141060207847 2.919313719274581 -5.138141060207847 C 2.8283534568708033 -5.138141060207847 2.7411204066651003 -5.174282920287203 2.6768127993036352 -5.238612547769469 C 2.6124831718213617 -5.302920155130937 2.576341311742007 -5.390153205336642 2.576341311742007 -5.48111346774042 C 2.576341311742007 -5.572073730144195 2.6124831718213617 -5.659306780349901 2.6768127993036326 -5.723614387711368 Z" fill="#ff0000" transform="matrix(1,0,0,1,0,0)" fill-rule="evenodd"></path></g><g clip-path="url(#SvgjsClipPath10001edbce42-b269-4926-b297-153631e9ee9c)"><path d=" M 4.206952821500657 -7.186933328467496 C 3.216871445784859 -8.177014704183293 1.9734660171886718 -7.924161222298966 1.225101276450384 -7.175325910564617 C 0.5907715737579439 -6.540996207872174 0.3121935440888578 -5.550914832156378 0.8448799116317682 -4.661065078601922 L 1.2840795079569012 -5.100264674927056 C 1.0288731710922625 -5.654283594291471 1.1585939090068633 -6.27214331212172 1.6429683209540067 -6.757145152063615 C 2.2776117376438236 -7.391631711754743 3.1401683734266452 -7.4173562595395035 3.7887720629996524 -6.768752569966494 L 4.65870097772079 -5.898823655245357 C 4.479079339565386 -5.5390908376732595 4.549640581452055 -5.104794921853334 4.833910245254779 -4.820431789268469 C 5.198752766212031 -4.455594117564636 5.790274224242737 -4.455594117564636 6.155116745199988 -4.820431789268469 C 6.519954416903822 -5.185274310225722 6.519954416903822 -5.776795768256429 6.155116745199988 -6.14163828921368 C 5.870753612615125 -6.425907953016404 5.4364576967952 -6.496469194903075 5.076724879223103 -6.316847556747671 L 4.206795964501966 -7.186776471468807 Z M 5.737249700696367 -5.7236143877113665 C 5.801579328178636 -5.659306780349898 5.837721188257991 -5.572073730144195 5.837721188257991 -5.48111346774042 C 5.837721188257991 -5.390153205336642 5.801579328178636 -5.3029201551309395 5.737249700696367 -5.238612547769471 C 5.6729420933349 -5.174282920287203 5.585709043129197 -5.138141060207847 5.494748780725419 -5.138141060207847 C 5.403788518321641 -5.138141060207847 5.316555468115938 -5.174282920287203 5.252247860754472 -5.238612547769469 C 5.187918233272201 -5.3029201551309395 5.151776373192847 -5.390153205336642 5.151776373192847 -5.48111346774042 C 5.151776373192847 -5.572073730144195 5.187918233272201 -5.659306780349898 5.252247860754472 -5.723614387711368 C 5.316555468115938 -5.787944015193634 5.403788518321639 -5.824085875272987 5.494748780725417 -5.824085875272987 C 5.585709043129194 -5.8240858752729885 5.672942093334898 -5.787944015193634 5.737249700696365 -5.7236143877113665 Z" fill="#ff0000" transform="matrix(1,0,0,1,0,0)" fill-rule="evenodd"></path></g></g><g><path d=" M 0.954345703125 0.217529296875 L 0.94775390625 0.220458984375 Q 0.890625 0.167724609375 0.8104248046875 0.13623046875 Q 0.730224609375 0.104736328125 0.63427734375 0.104736328125 Q 0.5419921875 0.104736328125 0.465087890625 0.1336669921875 Q 0.38818359375 0.16259765625 0.3328857421875 0.217529296875 Q 0.277587890625 0.2724609375 0.246826171875 0.352294921875 Q 0.216064453125 0.43212890625 0.216064453125 0.533935546875 Q 0.216064453125 0.64599609375 0.245361328125 0.7430419921875 Q 0.274658203125 0.840087890625 0.33251953125 0.9111328125 Q 0.390380859375 0.982177734375 0.4771728515625 1.0228271484375 Q 0.56396484375 1.0634765625 0.6796875 1.0634765625 Q 0.721435546875 1.0634765625 0.76318359375 1.0546875 Q 0.804931640625 1.0458984375 0.8433837890625 1.0286865234375 Q 0.8818359375 1.011474609375 0.9158935546875 0.9869384765625 Q 0.949951171875 0.96240234375 0.977783203125 0.930908203125 L 0.98583984375 0.93603515625 L 0.92724609375 1.08544921875 Q 0.872314453125 1.106689453125 0.8060302734375 1.1180419921875 Q 0.73974609375 1.12939453125 0.67236328125 1.12939453125 Q 0.536865234375 1.12939453125 0.4244384765625 1.0902099609375 Q 0.31201171875 1.051025390625 0.2310791015625 0.979248046875 Q 0.150146484375 0.907470703125 0.1051025390625 0.8067626953125 Q 0.06005859375 0.7060546875 0.06005859375 0.5830078125 Q 0.06005859375 0.513427734375 0.0780029296875 0.446044921875 Q 0.095947265625 0.378662109375 0.13037109375 0.31787109375 Q 0.164794921875 0.257080078125 0.21533203125 0.2061767578125 Q 0.265869140625 0.1552734375 0.3306884765625 0.117919921875 Q 0.3955078125 0.08056640625 0.4735107421875 0.0596923828125 Q 0.551513671875 0.038818359375 0.642333984375 0.038818359375 Q 0.78369140625 0.038818359375 0.904541015625 0.08203125 L 0.954345703125 0.217529296875 M 1.068603515625 0.730224609375 Q 1.068603515625 0.6474609375 1.099365234375 0.5767822265625 Q 1.130126953125 0.506103515625 1.1839599609375 0.4541015625 Q 1.23779296875 0.402099609375 1.31103515625 0.372802734375 Q 1.38427734375 0.343505859375 1.468505859375 0.343505859375 Q 1.55126953125 0.343505859375 1.6241455078125 0.3709716796875 Q 1.697021484375 0.3984375 1.751220703125 0.448974609375 Q 1.805419921875 0.49951171875 1.8365478515625 0.572021484375 Q 1.86767578125 0.64453125 1.86767578125 0.734619140625 Q 1.86767578125 0.81005859375 1.84130859375 0.879638671875 Q 1.81494140625 0.94921875 1.763671875 1.002685546875 Q 1.71240234375 1.05615234375 1.6380615234375 1.0880126953125 Q 1.563720703125 1.119873046875 1.467041015625 1.119873046875 Q 1.385009765625 1.119873046875 1.3125 1.0927734375 Q 1.239990234375 1.065673828125 1.185791015625 1.01513671875 Q 1.131591796875 0.964599609375 1.10009765625 0.8924560546875 Q 1.068603515625 0.8203125 1.068603515625 0.730224609375 M 1.48388671875 1.06640625 Q 1.535888671875 1.06640625 1.5794677734375 1.0458984375 Q 1.623046875 1.025390625 1.654541015625 0.986572265625 Q 1.68603515625 0.94775390625 1.70361328125 0.89208984375 Q 1.72119140625 0.83642578125 1.72119140625 0.76611328125 Q 1.72119140625 0.68701171875 1.704345703125 0.6192626953125 Q 1.6875 0.551513671875 1.6541748046875 0.5020751953125 Q 1.620849609375 0.45263671875 1.5703125 0.4248046875 Q 1.519775390625 0.39697265625 1.452392578125 0.39697265625 Q 1.400390625 0.39697265625 1.357177734375 0.4171142578125 Q 1.31396484375 0.437255859375 1.2821044921875 0.475341796875 Q 1.250244140625 0.513427734375 1.232666015625 0.5687255859375 Q 1.215087890625 0.6240234375 1.215087890625 0.6943359375 Q 1.215087890625 0.7734375 1.2322998046875 0.841552734375 Q 1.24951171875 0.90966796875 1.283203125 0.9598388671875 Q 1.31689453125 1.010009765625 1.3670654296875 1.0382080078125 Q 1.417236328125 1.06640625 1.48388671875 1.06640625 M 2.304931640625 0.057861328125 Q 2.28662109375 0.057861328125 2.2657470703125 0.064453125 Q 2.244873046875 0.071044921875 2.227294921875 0.088623046875 Q 2.209716796875 0.106201171875 2.197998046875 0.1373291015625 Q 2.186279296875 0.16845703125 2.186279296875 0.217529296875 L 2.186279296875 0.356689453125 Q 2.22509765625 0.35595703125 2.2591552734375 0.3544921875 Q 2.293212890625 0.35302734375 2.3203125 0.3515625 Q 2.347412109375 0.35009765625 2.36572265625 0.3482666015625 Q 2.384033203125 0.346435546875 2.39208984375 0.344970703125 L 2.37890625 0.419677734375 Q 2.353271484375 0.4189453125 2.3232421875 0.41748046875 Q 2.297607421875 0.416015625 2.262451171875 0.415283203125 Q 2.227294921875 0.41455078125 2.186279296875 0.413818359375 L 2.186279296875 0.8203125 Q 2.186279296875 0.882568359375 2.1881103515625 0.9290771484375 Q 2.18994140625 0.9755859375 2.1925048828125 1.00927734375 Q 2.195068359375 1.04296875 2.1990966796875 1.065673828125 Q 2.203125 1.08837890625 2.20751953125 1.103759765625 L 2.20751953125 1.106689453125 L 2.038330078125 1.106689453125 L 2.038330078125 1.103759765625 Q 2.042724609375 1.08837890625 2.04638671875 1.065673828125 Q 2.050048828125 1.04296875 2.052978515625 1.00927734375 Q 2.055908203125 0.9755859375 2.057373046875 0.9290771484375 Q 2.058837890625 0.882568359375 2.058837890625 0.8203125 L 2.058837890625 0.413818359375 L 1.935791015625 0.418212890625 L 1.935791015625 0.353759765625 Q 1.95849609375 0.355224609375 1.989990234375 0.35595703125 Q 2.021484375 0.356689453125 2.058837890625 0.356689453125 L 2.058837890625 0.233642578125 Q 2.058837890625 0.17724609375 2.0753173828125 0.1336669921875 Q 2.091796875 0.090087890625 2.12109375 0.0604248046875 Q 2.150390625 0.03076171875 2.19140625 0.015380859375 Q 2.232421875 0 2.281494140625 0 Q 2.30859375 0 2.33203125 0.003662109375 Q 2.35546875 0.00732421875 2.3741455078125 0.012451171875 Q 2.392822265625 0.017578125 2.4071044921875 0.0230712890625 Q 2.42138671875 0.028564453125 2.430908203125 0.032958984375 L 2.45947265625 0.158935546875 L 2.45068359375 0.163330078125 Q 2.43896484375 0.145751953125 2.425048828125 0.1270751953125 Q 2.4111328125 0.1083984375 2.3935546875 0.093017578125 Q 2.3759765625 0.07763671875 2.3543701171875 0.0677490234375 Q 2.332763671875 0.057861328125 2.304931640625 0.057861328125 M 2.786865234375 0.057861328125 Q 2.7685546875 0.057861328125 2.7476806640625 0.064453125 Q 2.726806640625 0.071044921875 2.709228515625 0.088623046875 Q 2.691650390625 0.106201171875 2.679931640625 0.1373291015625 Q 2.668212890625 0.16845703125 2.668212890625 0.217529296875 L 2.668212890625 0.356689453125 Q 2.70703125 0.35595703125 2.7410888671875 0.3544921875 Q 2.775146484375 0.35302734375 2.80224609375 0.3515625 Q 2.829345703125 0.35009765625 2.84765625 0.3482666015625 Q 2.865966796875 0.346435546875 2.8740234375 0.344970703125 L 2.86083984375 0.419677734375 Q 2.835205078125 0.4189453125 2.80517578125 0.41748046875 Q 2.779541015625 0.416015625 2.744384765625 0.415283203125 Q 2.709228515625 0.41455078125 2.668212890625 0.413818359375 L 2.668212890625 0.8203125 Q 2.668212890625 0.882568359375 2.6700439453125 0.9290771484375 Q 2.671875 0.9755859375 2.6744384765625 1.00927734375 Q 2.677001953125 1.04296875 2.6810302734375 1.065673828125 Q 2.68505859375 1.08837890625 2.689453125 1.103759765625 L 2.689453125 1.106689453125 L 2.520263671875 1.106689453125 L 2.520263671875 1.103759765625 Q 2.524658203125 1.08837890625 2.5283203125 1.065673828125 Q 2.531982421875 1.04296875 2.534912109375 1.00927734375 Q 2.537841796875 0.9755859375 2.539306640625 0.9290771484375 Q 2.540771484375 0.882568359375 2.540771484375 0.8203125 L 2.540771484375 0.413818359375 L 2.417724609375 0.418212890625 L 2.417724609375 0.353759765625 Q 2.4404296875 0.355224609375 2.471923828125 0.35595703125 Q 2.50341796875 0.356689453125 2.540771484375 0.356689453125 L 2.540771484375 0.233642578125 Q 2.540771484375 0.17724609375 2.5572509765625 0.1336669921875 Q 2.57373046875 0.090087890625 2.60302734375 0.0604248046875 Q 2.63232421875 0.03076171875 2.67333984375 0.015380859375 Q 2.71435546875 0 2.763427734375 0 Q 2.79052734375 0 2.81396484375 0.003662109375 Q 2.83740234375 0.00732421875 2.8560791015625 0.012451171875 Q 2.874755859375 0.017578125 2.8890380859375 0.0230712890625 Q 2.9033203125 0.028564453125 2.912841796875 0.032958984375 L 2.94140625 0.158935546875 L 2.9326171875 0.163330078125 Q 2.9208984375 0.145751953125 2.906982421875 0.1270751953125 Q 2.89306640625 0.1083984375 2.87548828125 0.093017578125 Q 2.85791015625 0.07763671875 2.8363037109375 0.0677490234375 Q 2.814697265625 0.057861328125 2.786865234375 0.057861328125 M 3.311279296875 1.119873046875 Q 3.22998046875 1.119873046875 3.158935546875 1.09423828125 Q 3.087890625 1.068603515625 3.03515625 1.0191650390625 Q 2.982421875 0.9697265625 2.9520263671875 0.8968505859375 Q 2.921630859375 0.823974609375 2.921630859375 0.730224609375 Q 2.921630859375 0.6474609375 2.949462890625 0.5767822265625 Q 2.977294921875 0.506103515625 3.0263671875 0.4541015625 Q 3.075439453125 0.402099609375 3.1409912109375 0.372802734375 Q 3.20654296875 0.343505859375 3.28271484375 0.343505859375 Q 3.358154296875 0.343505859375 3.422607421875 0.3695068359375 Q 3.487060546875 0.3955078125 3.5343017578125 0.4449462890625 Q 3.58154296875 0.494384765625 3.6090087890625 0.5672607421875 Q 3.636474609375 0.64013671875 3.638671875 0.733154296875 Q 3.555908203125 0.731689453125 3.47314453125 0.73095703125 Q 3.390380859375 0.730224609375 3.301025390625 0.730224609375 Q 3.2373046875 0.730224609375 3.1768798828125 0.73095703125 Q 3.116455078125 0.731689453125 3.068115234375 0.733154296875 Q 3.072509765625 0.809326171875 3.0919189453125 0.870849609375 Q 3.111328125 0.932373046875 3.1453857421875 0.9759521484375 Q 3.179443359375 1.01953125 3.2281494140625 1.04296875 Q 3.27685546875 1.06640625 3.33837890625 1.06640625 Q 3.380859375 1.06640625 3.4185791015625 1.0565185546875 Q 3.456298828125 1.046630859375 3.487060546875 1.029052734375 Q 3.517822265625 1.011474609375 3.5419921875 0.9876708984375 Q 3.566162109375 0.9638671875 3.5830078125 0.93603515625 L 3.591796875 0.9404296875 L 3.53759765625 1.07080078125 Q 3.498046875 1.09130859375 3.443115234375 1.1055908203125 Q 3.38818359375 1.119873046875 3.311279296875 1.119873046875 M 3.2138671875 0.673095703125 Q 3.287109375 0.673095703125 3.3607177734375 0.6727294921875 Q 3.434326171875 0.67236328125 3.494384765625 0.670166015625 Q 3.48779296875 0.6064453125 3.469482421875 0.555908203125 Q 3.451171875 0.50537109375 3.422607421875 0.47021484375 Q 3.39404296875 0.43505859375 3.355224609375 0.416015625 Q 3.31640625 0.39697265625 3.26953125 0.39697265625 Q 3.22705078125 0.39697265625 3.1915283203125 0.4156494140625 Q 3.156005859375 0.434326171875 3.129638671875 0.469482421875 Q 3.103271484375 0.504638671875 3.087158203125 0.5555419921875 Q 3.071044921875 0.6064453125 3.068115234375 0.671630859375 Q 3.10107421875 0.673095703125 3.1376953125 0.673095703125 Q 3.17431640625 0.673095703125 3.2138671875 0.673095703125 M 4.12646484375 1.119873046875 Q 4.045166015625 1.119873046875 3.97412109375 1.09423828125 Q 3.903076171875 1.068603515625 3.850341796875 1.0191650390625 Q 3.797607421875 0.9697265625 3.7672119140625 0.8968505859375 Q 3.73681640625 0.823974609375 3.73681640625 0.730224609375 Q 3.73681640625 0.6474609375 3.7646484375 0.5767822265625 Q 3.79248046875 0.506103515625 3.841552734375 0.4541015625 Q 3.890625 0.402099609375 3.9561767578125 0.372802734375 Q 4.021728515625 0.343505859375 4.097900390625 0.343505859375 Q 4.17333984375 0.343505859375 4.23779296875 0.3695068359375 Q 4.30224609375 0.3955078125 4.3494873046875 0.4449462890625 Q 4.396728515625 0.494384765625 4.4241943359375 0.5672607421875 Q 4.45166015625 0.64013671875 4.453857421875 0.733154296875 Q 4.37109375 0.731689453125 4.288330078125 0.73095703125 Q 4.20556640625 0.730224609375 4.1162109375 0.730224609375 Q 4.052490234375 0.730224609375 3.9920654296875 0.73095703125 Q 3.931640625 0.731689453125 3.88330078125 0.733154296875 Q 3.8876953125 0.809326171875 3.9071044921875 0.870849609375 Q 3.926513671875 0.932373046875 3.9605712890625 0.9759521484375 Q 3.99462890625 1.01953125 4.0433349609375 1.04296875 Q 4.092041015625 1.06640625 4.153564453125 1.06640625 Q 4.196044921875 1.06640625 4.2337646484375 1.0565185546875 Q 4.271484375 1.046630859375 4.30224609375 1.029052734375 Q 4.3330078125 1.011474609375 4.357177734375 0.9876708984375 Q 4.38134765625 0.9638671875 4.398193359375 0.93603515625 L 4.406982421875 0.9404296875 L 4.352783203125 1.07080078125 Q 4.313232421875 1.09130859375 4.25830078125 1.1055908203125 Q 4.203369140625 1.119873046875 4.12646484375 1.119873046875 M 4.029052734375 0.673095703125 Q 4.102294921875 0.673095703125 4.1759033203125 0.6727294921875 Q 4.24951171875 0.67236328125 4.3095703125 0.670166015625 Q 4.302978515625 0.6064453125 4.28466796875 0.555908203125 Q 4.266357421875 0.50537109375 4.23779296875 0.47021484375 Q 4.209228515625 0.43505859375 4.17041015625 0.416015625 Q 4.131591796875 0.39697265625 4.084716796875 0.39697265625 Q 4.042236328125 0.39697265625 4.0067138671875 0.4156494140625 Q 3.97119140625 0.434326171875 3.94482421875 0.469482421875 Q 3.91845703125 0.504638671875 3.90234375 0.5555419921875 Q 3.88623046875 0.6064453125 3.88330078125 0.671630859375 Q 3.916259765625 0.673095703125 3.952880859375 0.673095703125 Q 3.989501953125 0.673095703125 4.029052734375 0.673095703125 M 5.098388671875 0.056396484375 L 5.852783203125 0.859130859375 L 5.852783203125 0.343505859375 Q 5.852783203125 0.28125 5.851318359375 0.2347412109375 Q 5.849853515625 0.188232421875 5.846923828125 0.1541748046875 Q 5.843994140625 0.1201171875 5.8399658203125 0.097412109375 Q 5.8359375 0.07470703125 5.83154296875 0.059326171875 L 5.83154296875 0.056396484375 L 5.9619140625 0.056396484375 L 5.9619140625 0.059326171875 Q 5.95751953125 0.07470703125 5.953857421875 0.097412109375 Q 5.9501953125 0.1201171875 5.947265625 0.1541748046875 Q 5.9443359375 0.188232421875 5.94287109375 0.2347412109375 Q 5.94140625 0.28125 5.94140625 0.343505859375 L 5.94140625 1.121337890625 L 5.915771484375 1.121337890625 L 5.161376953125 0.3193359375 L 5.161376953125 0.8203125 Q 5.161376953125 0.882568359375 5.162841796875 0.9290771484375 Q 5.164306640625 0.9755859375 5.167236328125 1.00927734375 Q 5.170166015625 1.04296875 5.173828125 1.065673828125 Q 5.177490234375 1.08837890625 5.181884765625 1.103759765625 L 5.181884765625 1.106689453125 L 5.051513671875 1.106689453125 L 5.051513671875 1.103759765625 Q 5.055908203125 1.08837890625 5.0599365234375 1.065673828125 Q 5.06396484375 1.04296875 5.06689453125 1.00927734375 Q 5.06982421875 0.9755859375 5.0712890625 0.9290771484375 Q 5.07275390625 0.882568359375 5.07275390625 0.8203125 L 5.07275390625 0.343505859375 Q 5.07275390625 0.28125 5.0712890625 0.2347412109375 Q 5.06982421875 0.188232421875 5.06689453125 0.1541748046875 Q 5.06396484375 0.1201171875 5.0599365234375 0.097412109375 Q 5.055908203125 0.07470703125 5.051513671875 0.059326171875 L 5.051513671875 0.056396484375 L 5.098388671875 0.056396484375 M 6.18017578125 0.64306640625 Q 6.18017578125 0.580810546875 6.1783447265625 0.5343017578125 Q 6.176513671875 0.48779296875 6.1739501953125 0.4541015625 Q 6.17138671875 0.42041015625 6.1673583984375 0.397705078125 Q 6.163330078125 0.375 6.158935546875 0.359619140625 L 6.158935546875 0.356689453125 L 6.328125 0.356689453125 L 6.328125 0.359619140625 Q 6.32373046875 0.375 6.320068359375 0.397705078125 Q 6.31640625 0.42041015625 6.3134765625 0.4541015625 Q 6.310546875 0.48779296875 6.30908203125 0.5343017578125 Q 6.3076171875 0.580810546875 6.3076171875 0.64306640625 L 6.3076171875 0.8203125 Q 6.3076171875 0.882568359375 6.30908203125 0.9290771484375 Q 6.310546875 0.9755859375 6.3134765625 1.00927734375 Q 6.31640625 1.04296875 6.320068359375 1.065673828125 Q 6.32373046875 1.08837890625 6.328125 1.103759765625 L 6.328125 1.106689453125 L 6.158935546875 1.106689453125 L 6.158935546875 1.103759765625 Q 6.163330078125 1.08837890625 6.1673583984375 1.065673828125 Q 6.17138671875 1.04296875 6.1739501953125 1.00927734375 Q 6.176513671875 0.9755859375 6.1783447265625 0.9290771484375 Q 6.18017578125 0.882568359375 6.18017578125 0.8203125 L 6.18017578125 0.64306640625 M 6.164794921875 0.134765625 Q 6.164794921875 0.11865234375 6.1710205078125 0.1043701171875 Q 6.17724609375 0.090087890625 6.1875 0.0794677734375 Q 6.19775390625 0.06884765625 6.2120361328125 0.0626220703125 Q 6.226318359375 0.056396484375 6.2431640625 0.056396484375 Q 6.260009765625 0.056396484375 6.2742919921875 0.0626220703125 Q 6.28857421875 0.06884765625 6.2991943359375 0.0794677734375 Q 6.309814453125 0.090087890625 6.3160400390625 0.1043701171875 Q 6.322265625 0.11865234375 6.322265625 0.134765625 Q 6.322265625 0.16845703125 6.299560546875 0.191162109375 Q 6.27685546875 0.2138671875 6.2431640625 0.2138671875 Q 6.226318359375 0.2138671875 6.2120361328125 0.2076416015625 Q 6.19775390625 0.201416015625 6.1875 0.1907958984375 Q 6.17724609375 0.18017578125 6.1710205078125 0.1658935546875 Q 6.164794921875 0.151611328125 6.164794921875 0.134765625 M 7.043701171875 0.613037109375 Q 7.043701171875 0.516357421875 7.0048828125 0.470947265625 Q 6.966064453125 0.425537109375 6.90087890625 0.425537109375 Q 6.87744140625 0.425537109375 6.84814453125 0.4354248046875 Q 6.81884765625 0.4453125 6.7880859375 0.4617919921875 Q 6.75732421875 0.478271484375 6.7265625 0.500244140625 Q 6.69580078125 0.522216796875 6.668701171875 0.547119140625 L 6.667236328125 0.64306640625 L 6.667236328125 0.8203125 Q 6.667236328125 0.882568359375 6.668701171875 0.9290771484375 Q 6.670166015625 0.9755859375 6.673095703125 1.00927734375 Q 6.676025390625 1.04296875 6.6796875 1.065673828125 Q 6.683349609375 1.08837890625 6.687744140625 1.103759765625 L 6.687744140625 1.106689453125 L 6.5185546875 1.106689453125 L 6.5185546875 1.103759765625 Q 6.52294921875 1.08837890625 6.5269775390625 1.065673828125 Q 6.531005859375 1.04296875 6.5335693359375 1.00927734375 Q 6.5361328125 0.9755859375 6.5379638671875 0.9290771484375 Q 6.539794921875 0.882568359375 6.539794921875 0.8203125 L 6.539794921875 0.64306640625 Q 6.539794921875 0.580810546875 6.5379638671875 0.5343017578125 Q 6.5361328125 0.48779296875 6.5335693359375 0.4541015625 Q 6.531005859375 0.42041015625 6.5269775390625 0.397705078125 Q 6.52294921875 0.375 6.5185546875 0.359619140625 L 6.5185546875 0.356689453125 L 6.687744140625 0.356689453125 L 6.687744140625 0.359619140625 Q 6.681884765625 0.3779296875 6.6785888671875 0.4061279296875 Q 6.67529296875 0.434326171875 6.671630859375 0.479736328125 Q 6.70166015625 0.454833984375 6.7364501953125 0.429931640625 Q 6.771240234375 0.405029296875 6.80859375 0.3856201171875 Q 6.845947265625 0.3662109375 6.884765625 0.3541259765625 Q 6.923583984375 0.342041015625 6.9609375 0.342041015625 Q 7.01806640625 0.342041015625 7.0579833984375 0.36181640625 Q 7.097900390625 0.381591796875 7.1231689453125 0.413818359375 Q 7.1484375 0.446044921875 7.1597900390625 0.4874267578125 Q 7.171142578125 0.52880859375 7.171142578125 0.5712890625 L 7.171142578125 0.8203125 Q 7.171142578125 0.882568359375 7.172607421875 0.9290771484375 Q 7.174072265625 0.9755859375 7.177001953125 1.00927734375 Q 7.179931640625 1.04296875 7.18359375 1.065673828125 Q 7.187255859375 1.08837890625 7.191650390625 1.103759765625 L 7.191650390625 1.106689453125 L 7.0224609375 1.106689453125 L 7.0224609375 1.103759765625 Q 7.02685546875 1.08837890625 7.0308837890625 1.065673828125 Q 7.034912109375 1.04296875 7.0374755859375 1.00927734375 Q 7.0400390625 0.9755859375 7.0418701171875 0.9290771484375 Q 7.043701171875 0.882568359375 7.043701171875 0.8203125 L 7.043701171875 0.613037109375 M 7.395263671875 0.64306640625 Q 7.395263671875 0.580810546875 7.3934326171875 0.5343017578125 Q 7.3916015625 0.48779296875 7.3890380859375 0.4541015625 Q 7.386474609375 0.42041015625 7.3824462890625 0.397705078125 Q 7.37841796875 0.375 7.3740234375 0.359619140625 L 7.3740234375 0.356689453125 L 7.543212890625 0.356689453125 L 7.543212890625 0.359619140625 Q 7.538818359375 0.375 7.53515625 0.397705078125 Q 7.531494140625 0.42041015625 7.528564453125 0.4541015625 Q 7.525634765625 0.48779296875 7.524169921875 0.5343017578125 Q 7.522705078125 0.580810546875 7.522705078125 0.64306640625 L 7.522705078125 1.030517578125 Q 7.522705078125 1.12939453125 7.5010986328125 1.201904296875 Q 7.4794921875 1.2744140625 7.4417724609375 1.330078125 Q 7.404052734375 1.3857421875 7.3531494140625 1.4300537109375 Q 7.30224609375 1.474365234375 7.24365234375 1.51611328125 L 7.229736328125 1.49853515625 Q 7.2802734375 1.452392578125 7.3125 1.402587890625 Q 7.3447265625 1.352783203125 7.363037109375 1.2960205078125 Q 7.38134765625 1.2392578125 7.3883056640625 1.1737060546875 Q 7.395263671875 1.108154296875 7.395263671875 1.030517578125 L 7.395263671875 0.64306640625 M 7.3798828125 0.134765625 Q 7.3798828125 0.11865234375 7.3861083984375 0.1043701171875 Q 7.392333984375 0.090087890625 7.402587890625 0.0794677734375 Q 7.412841796875 0.06884765625 7.4271240234375 0.0626220703125 Q 7.44140625 0.056396484375 7.458251953125 0.056396484375 Q 7.47509765625 0.056396484375 7.4893798828125 0.0626220703125 Q 7.503662109375 0.06884765625 7.5142822265625 0.0794677734375 Q 7.52490234375 0.090087890625 7.5311279296875 0.1043701171875 Q 7.537353515625 0.11865234375 7.537353515625 0.134765625 Q 7.537353515625 0.16845703125 7.5146484375 0.191162109375 Q 7.491943359375 0.2138671875 7.458251953125 0.2138671875 Q 7.44140625 0.2138671875 7.4271240234375 0.2076416015625 Q 7.412841796875 0.201416015625 7.402587890625 0.1907958984375 Q 7.392333984375 0.18017578125 7.3861083984375 0.1658935546875 Q 7.3798828125 0.151611328125 7.3798828125 0.134765625 M 7.692626953125 0.890625 Q 7.692626953125 0.832763671875 7.7164306640625 0.790283203125 Q 7.740234375 0.747802734375 7.77978515625 0.7177734375 Q 7.8193359375 0.687744140625 7.869873046875 0.6690673828125 Q 7.92041015625 0.650390625 7.974609375 0.6397705078125 Q 8.02880859375 0.629150390625 8.08154296875 0.6251220703125 Q 8.13427734375 0.62109375 8.17822265625 0.620361328125 L 8.17822265625 0.5830078125 Q 8.17822265625 0.53466796875 8.165771484375 0.49951171875 Q 8.1533203125 0.46435546875 8.130615234375 0.4412841796875 Q 8.10791015625 0.418212890625 8.0760498046875 0.4068603515625 Q 8.044189453125 0.3955078125 8.006103515625 0.3955078125 Q 7.979736328125 0.3955078125 7.9541015625 0.39990234375 Q 7.928466796875 0.404296875 7.9010009765625 0.41455078125 Q 7.87353515625 0.4248046875 7.8431396484375 0.4423828125 Q 7.812744140625 0.4599609375 7.777587890625 0.487060546875 L 7.770263671875 0.482666015625 L 7.820068359375 0.37939453125 Q 7.84423828125 0.368408203125 7.86767578125 0.3614501953125 Q 7.89111328125 0.3544921875 7.915283203125 0.35009765625 Q 7.939453125 0.345703125 7.9647216796875 0.3438720703125 Q 7.989990234375 0.342041015625 8.017822265625 0.342041015625 Q 8.0947265625 0.342041015625 8.1492919921875 0.3607177734375 Q 8.203857421875 0.37939453125 8.2386474609375 0.4119873046875 Q 8.2734375 0.444580078125 8.28955078125 0.4881591796875 Q 8.3056640625 0.53173828125 8.3056640625 0.58154296875 L 8.3056640625 0.8203125 Q 8.3056640625 0.882568359375 8.3074951171875 0.9290771484375 Q 8.309326171875 0.9755859375 8.3118896484375 1.00927734375 Q 8.314453125 1.04296875 8.3184814453125 1.065673828125 Q 8.322509765625 1.08837890625 8.326904296875 1.103759765625 L 8.326904296875 1.106689453125 L 8.1650390625 1.106689453125 L 8.1650390625 1.103759765625 Q 8.168701171875 1.092041015625 8.1705322265625 1.077392578125 Q 8.17236328125 1.062744140625 8.173828125 1.042236328125 Q 8.158447265625 1.055419921875 8.1375732421875 1.0693359375 Q 8.11669921875 1.083251953125 8.0899658203125 1.0946044921875 Q 8.063232421875 1.10595703125 8.0306396484375 1.1129150390625 Q 7.998046875 1.119873046875 7.959228515625 1.119873046875 Q 7.831787109375 1.119873046875 7.76220703125 1.0601806640625 Q 7.692626953125 1.00048828125 7.692626953125 0.890625 M 8.17822265625 0.677490234375 Q 8.111572265625 0.67822265625 8.050048828125 0.6851806640625 Q 7.988525390625 0.692138671875 7.9412841796875 0.714111328125 Q 7.89404296875 0.736083984375 7.8658447265625 0.7767333984375 Q 7.837646484375 0.8173828125 7.837646484375 0.884765625 Q 7.837646484375 0.97119140625 7.880859375 1.0166015625 Q 7.924072265625 1.06201171875 8.000244140625 1.06201171875 Q 8.035400390625 1.06201171875 8.0643310546875 1.0521240234375 Q 8.09326171875 1.042236328125 8.1156005859375 1.0272216796875 Q 8.137939453125 1.01220703125 8.1533203125 0.9942626953125 Q 8.168701171875 0.976318359375 8.1767578125 0.95947265625 Q 8.17822265625 0.931640625 8.17822265625 0.8975830078125 Q 8.17822265625 0.863525390625 8.17822265625 0.8203125 L 8.17822265625 0.677490234375" fill="#ffffff" fill-rule="nonzero"></path></g><g></g></g><defs><clipPath id="SvgjsClipPath1001"><path d=" M 0.5636353129849985 -7.836791874030003 h 7.286791874030003 v 7.286791874030003 h -7.286791874030003 Z"></path></clipPath><clipPath id="SvgjsClipPath10001edbce42-b269-4926-b297-153631e9ee9c"><path d=" M 0.5636353129849985 -7.836791874030003 L 7.8504271870150015 -7.836791874030003 L 7.8504271870150015 -0.5499999999999998 L 0.5636353129849985 -0.5499999999999998 Z"></path></clipPath></defs></svg>